<?xml version='1.0' encoding='iso-8859-1'?>
<svg version="1.1" xmlns="http://www.w3.org/2000/svg" viewBox="0 0 463 463" xmlns:xlink="http://www.w3.org/1999/xlink" enable-background="new 0 0 463 463">
  <g>
    <path d="M395.195,67.805C351.471,24.08,293.336,0,231.5,0S111.529,24.08,67.805,67.805S0,169.664,0,231.5   s24.08,119.971,67.805,163.695S169.664,463,231.5,463s119.971-24.08,163.695-67.805S463,293.336,463,231.5   S438.92,111.529,395.195,67.805z M384.589,384.589C343.697,425.48,289.329,448,231.5,448s-112.197-22.52-153.089-63.411   C37.52,343.697,15,289.329,15,231.5S37.52,119.303,78.411,78.411C119.303,37.52,173.671,15,231.5,15s112.197,22.52,153.089,63.411   C425.48,119.303,448,173.671,448,231.5S425.48,343.697,384.589,384.589z"/>
    <path d="m231.5,40c-105.593,0-191.5,85.906-191.5,191.5s85.907,191.5 191.5,191.5 191.5-85.906 191.5-191.5-85.907-191.5-191.5-191.5zm94.639,340.42l-4.144-7.178c-2.071-3.587-6.657-4.815-10.245-2.745-3.587,2.071-4.816,6.658-2.745,10.245l4.153,7.194c-22.348,11.712-47.496,18.773-74.158,19.894v-24.33c0-4.143-3.358-7.5-7.5-7.5s-7.5,3.357-7.5,7.5v24.33c-26.662-1.121-51.811-8.181-74.158-19.894l4.153-7.193c2.071-3.587 0.842-8.174-2.745-10.245-3.587-2.071-8.174-0.843-10.245,2.745l-4.144,7.177c-21.809-13.909-40.372-32.472-54.28-54.281l7.177-4.144c3.587-2.071 4.816-6.658 2.745-10.245-2.071-3.588-6.659-4.814-10.245-2.745l-7.193,4.153c-11.713-22.348-18.774-47.496-19.895-74.158h24.33c4.142,0 7.5-3.357 7.5-7.5s-3.358-7.5-7.5-7.5h-24.33c1.121-26.662 8.181-51.81 19.894-74.158l7.193,4.153c1.181,0.682 2.471,1.006 3.743,1.006 2.592,0 5.113-1.345 6.502-3.751 2.071-3.587 0.842-8.174-2.745-10.245l-7.177-4.144c13.909-21.809 32.472-40.372 54.281-54.281l4.144,7.178c1.389,2.406 3.91,3.751 6.502,3.751 1.272,0 2.562-0.324 3.743-1.006 3.587-2.07 4.816-6.657 2.745-10.245l-4.153-7.193c22.348-11.713 47.496-18.774 74.158-19.895v24.33c0,4.143 3.358,7.5 7.5,7.5s7.5-3.357 7.5-7.5v-24.33c26.661,1.121 51.81,8.181 74.157,19.894l-4.153,7.194c-2.071,3.588-0.842,8.174 2.745,10.245 1.182,0.682 2.471,1.006 3.743,1.006 2.592,0 5.113-1.345 6.502-3.751l4.144-7.178c21.809,13.909 40.372,32.472 54.281,54.281l-7.178,4.144c-3.587,2.071-4.816,6.658-2.745,10.245 1.389,2.406 3.91,3.751 6.502,3.751 1.272,0 2.563-0.324 3.743-1.006l7.194-4.154c11.713,22.348 18.774,47.496 19.894,74.158h-24.329c-4.142,0-7.5,3.357-7.5,7.5s3.358,7.5 7.5,7.5h24.33c-1.121,26.662-8.181,51.81-19.894,74.158l-7.194-4.154c-3.587-2.07-8.174-0.843-10.245,2.745-2.071,3.587-0.842,8.174 2.745,10.245l7.178,4.144c-13.909,21.811-32.472,40.375-54.281,54.283z"/>
    <path d="m258.431,247.824c2.899-4.763 4.569-10.352 4.569-16.324 0-14.785-10.241-27.216-24-30.591v-25.409c0-4.143-3.358-7.5-7.5-7.5s-7.5,3.357-7.5,7.5v25.409c-3.152,0.773-6.122,2.015-8.824,3.659l-50.373-50.372c-2.929-2.928-7.678-2.928-10.606,0-2.929,2.93-2.929,7.678 0,10.607l50.372,50.372c-2.898,4.764-4.569,10.353-4.569,16.325 0,14.785 10.241,27.216 24,30.591v89.409c0,4.143 3.358,7.5 7.5,7.5s7.5-3.357 7.5-7.5v-89.409c3.152-0.773 6.122-2.015 8.824-3.659l10.372,10.372c1.464,1.464 3.384,2.196 5.303,2.196s3.839-0.732 5.303-2.196c2.929-2.93 2.929-7.678 0-10.607l-10.371-10.373zm-43.431-16.324c0-9.098 7.402-16.5 16.5-16.5s16.5,7.402 16.5,16.5-7.402,16.5-16.5,16.5-16.5-7.402-16.5-16.5z"/>
  </g>
</svg>
